# xmcd
#
# Track frame offsets:
#	150
#	25338
#	36487
#	67443
#	86151
#	116707
#
# Disc length: 2409 seconds
#
# Revision: 0
# Processed by: cddbd v1.5.2PL0 Copyright (c) Steve Scherf et al.
# Submitted via: EZCDAudioConverter 2.1.7.1
#
DISCID=5a096706
DTITLE=Thelonious Monk - Les Liaisons Dangereuses 1960 2/2
DYEAR=1900
DGENRE=
TTITLE0=Rhythm-A-Ning [Alternate]
TTITLE1=Crepuscule With Nellie [Take 1]
TTITLE2=Pannonica [45 Master]
TTITLE3=Light Blue [45 Master]
TTITLE4=Well, You Needn't [Unedited]
TTITLE5=Light Blue [Making Of]
EXTD=
EXTT0=
EXTT1=
EXTT2=
EXTT3=
EXTT4=
EXTT5=
PLAYORDER=
